<?xml version="1.0" encoding="UTF-8"?>
<svg id="Camada_1" data-name="Camada 1" xmlns="http://www.w3.org/2000/svg" viewBox="0 0 425.35 104.19">
  <defs>
    <style>
      .cls-1 {
        fill: #695e2f;
      }
    </style>
  </defs>
  <g>
    <path class="cls-1" d="M114.83,69.6c0,11.16,6.13,8.42,6.13,13.36,0,2.2-1.28,2.93-5.4,2.93h-16.74c-3.93,0-5.4-.73-5.4-2.93,0-4.94,6.31-2.2,6.31-13.36v-36.87c0-2.47-1.19-3.75-3.75-3.75-5.49,0-7.41,3.39-10.8,9.97-1.01,2.1-2.01,3.29-3.48,3.29-2.01,0-2.56-1.65-2.47-4.48.18-5.4.73-9.15,1.46-11.8.82-2.93,2.38-4.12,7.78-4.12h37.51c5.49,0,7.04,1.19,7.78,4.12.73,2.65,1.28,6.4,1.46,11.8.09,2.74-.46,4.48-2.47,4.48-1.46,0-2.38-1.19-3.48-3.29-3.29-6.59-5.31-10.06-10.8-10.06-2.38,0-3.66,1.37-3.66,3.84v36.87Z"/>
    <path class="cls-1" d="M169.82,73.45c-1.74,5.4-9.61,13.36-22.14,13.36s-21.96-8.88-21.96-21.59c0-14.18,11.53-24.15,23.88-24.15,11.53,0,17.66,7.04,18.76,14.82.18,1.37-.55,2.74-2.1,3.48-9.06,4.39-15.37,7.04-24.34,10.52,1.92,3.57,5.67,6.77,12.08,6.77,5.31,0,9.52-2.74,12.81-5.86,2.01-1.92,3.93-.18,3.02,2.65ZM138.99,58.08c0,1.92.37,4.39.82,5.86,4.21-1.46,8.51-3.02,12.53-4.94,1.56-.73,3.11-1.28,2.29-4.03-1.46-5.12-5.49-8.14-9.61-7.04-3.84.92-6.04,4.76-6.04,10.16Z"/>
    <path class="cls-1" d="M250.43,75.09c1.19,5.58,4.76,4.76,4.76,8.23,0,2.1-1.56,2.56-4.21,2.56h-14.27c-2.84,0-4.48-.64-4.48-2.65,0-3.2,4.85-3.11,3.57-9.06l-2.93-14.09c-1.01-5.03-2.01-9.97-7.32-9.88-3.93,0-7.59,3.57-7.59,10.34v12.35c0,8.33,4.48,6.04,4.48,10.43,0,2.1-1.56,2.56-4.21,2.56h-14.73c-2.84,0-4.48-.64-4.48-2.65,0-4.3,4.57-2.01,4.57-10.34v-11.62c0-6.04-.82-11.44-6.68-11.34-4.21,0-8.33,4.12-8.33,10.61v12.35c0,8.33,4.48,6.04,4.48,10.43,0,2.1-1.56,2.56-4.21,2.56h-14.82c-2.75,0-4.39-.64-4.39-2.65,0-4.3,4.57-2.01,4.57-10.34v-16.93c0-2.29-1.37-3.66-2.84-4.94-.82-.64-1.74-1.37-1.74-2.84,0-1.65.82-2.38,3.02-3.39,3.57-1.65,10.52-3.66,12.08-3.75,1.65,0,2.29,1.1,2.29,3.11v5.03c3.66-5.4,9.06-8.14,14.82-8.14,7.32,0,11.8,3.02,14.18,8.05,3.39-5.21,8.6-8.05,14.46-8.05,11.44,0,14.27,7.59,16.65,18.66l3.29,15.37Z"/>
    <path class="cls-1" d="M303.13,62.1c0,17.38-11.71,24.7-20.4,24.7-4.48,0-8.42-1.56-11.44-3.29v7.69c0,8.33,4.57,6.04,4.57,10.43,0,2.1-1.65,2.56-4.21,2.56h-14.82c-2.84,0-4.48-.64-4.48-2.56,0-4.39,4.57-2.1,4.57-10.43v-35.32c0-2.29-1.28-3.66-2.84-4.85-.73-.73-1.74-1.46-1.74-2.93,0-1.65.82-2.29,3.02-3.29,3.66-1.74,10.61-3.75,12.08-3.75,1.65,0,2.29,1.1,2.29,3.11v4.3c2.93-4.03,7.59-7.41,14.82-7.41,9.79,0,18.57,7.5,18.57,21.04ZM289.32,68.05c0-9.79-3.57-18.57-10.16-18.57-4.48,0-7.96,4.67-7.87,11.25l.09,5.76c.18,8.69,4.94,13.82,10.16,13.82,5.76,0,7.78-6.86,7.78-12.26Z"/>
    <path class="cls-1" d="M347.96,73.45c-1.74,5.4-9.61,13.36-22.14,13.36s-21.96-8.88-21.96-21.59c0-14.18,11.53-24.15,23.88-24.15,11.53,0,17.66,7.04,18.76,14.82.18,1.37-.55,2.74-2.1,3.48-9.06,4.39-15.37,7.04-24.34,10.52,1.92,3.57,5.67,6.77,12.08,6.77,5.31,0,9.51-2.74,12.81-5.86,2.01-1.92,3.93-.18,3.02,2.65ZM317.13,58.08c0,1.92.37,4.39.82,5.86,4.21-1.46,8.51-3.02,12.53-4.94,1.56-.73,3.11-1.28,2.29-4.03-1.46-5.12-5.49-8.14-9.61-7.04-3.84.92-6.04,4.76-6.04,10.16Z"/>
    <path class="cls-1" d="M404.23,32.55c4.47.65,7.57,1.76,11.65,3.21,4.8,1.71,7.23,2.6,8.32,4.28,3.49,5.36-1.84,15.96-4.99,15.78-2.09-.12-1.53-4.89-6.3-10.19-.95-1.05-5-5.33-11.53-6.78-6.46-1.43-11.69.7-15.38,2.21-1.29.53-7.97,3.34-13.78,10.34-2.8,3.37-4.49,6.61-5.49,8.87v12.63c0,8.33,4.48,6.04,4.48,10.43,0,2.1-1.55,2.56-4.21,2.56h-14.82c-2.74,0-4.39-.64-4.39-2.65,0-4.3,4.58-2.01,4.58-10.34v-16.93c0-2.29-1.37-3.66-2.84-4.94-.82-.64-1.74-1.37-1.74-2.84,0-1.65.82-2.38,3.02-3.39,3.57-1.65,10.52-3.66,12.08-3.75,1.65,0,2.29,1.1,2.29,3.11v4.48c1.68-2.1,4.16-4.84,7.55-7.59,2.88-2.33,7.03-5.7,13.3-7.68,7.56-2.39,14.03-1.44,18.21-.83Z"/>
    <path class="cls-1" d="M425.22,79.94c0,3.48-5.76,6.68-10.25,6.68-3.93,0-6.86-1.92-8.51-6.59-4.67,4.76-10.8,6.59-16.29,6.59-9.7,0-16.38-5.58-16.38-13.17,0-8.69,7.59-15.19,21.5-15.19,1.65,0,3.11.18,6.04.46-1.56-4.94-3.75-9.15-9.97-9.15-3.57,0-7.5,1.74-10.52,3.39-1.74,1.1-3.93-.27-2.47-2.84,2.38-4.12,9.51-9.06,18.48-9.06,12.54,0,15.74,8.88,17.93,16.29l4.67,15.92c.92,3.2,1.92,5.03,4.12,4.94,1.01-.09,1.65.64,1.65,1.74ZM404.63,72.81c-.18-1.28-1.01-3.57-1.92-6.31-.73-2.1-3.02-3.02-6.04-3.02-5.76,0-9.33,3.02-9.33,7.5,0,4.85,3.66,8.42,9.15,8.42,4.57,0,8.87-3.02,8.14-6.59Z"/>
  </g>
  <g>
    <path class="cls-1" d="M61.84,42.98c1.77,4.48,2.44,8.98,1.82,13.66-.67,5.03-1.93,9.97-4.55,14.36-1.33,2.23-2.93,4.15-4.45,6.24-1.02,1.4-2.53,2.31-3.81,3.45l-2.87,2.58-3.81,2.59c-3.28,1.75-6.75,3.02-10.4,3.74-4.17.82-8.32.42-12.46-.34s-8.17-2.28-11.75-4.74c-.78-.53-1.62-1.14-2.21-1.89-2.2-2.76-3.91-5.68-5.46-8.83-3.17-6.42-1.8-12.45.28-18.99,1-3.14,2.36-5.96,4.04-8.8l2.91-4.9c.7-1.18,1.22-2.27,2.07-3.38,4.79-6.25,10.54-11,17.84-14.16-.03-3.04-2.67-5.6-5.45-6.76-.2-.08-.55-.42-.69-.6.24-2.1,3.18-3.6,4.88-2.94,2.59,1.01,2.58,4.13,2.99,6.81l.25,1.64c.19-.69.21-1.32.21-2.01v-4.85c.01-3.63,3.41-7.49,6.58-9.17l4.77-1.97c1.46-.6,2.62-1.44,3.38-2.84.17-.32.66-.71,1.03-.88.42.3.97,1.1.88,1.58l-.55,2.89-.62,4.72-.6,3.44c-.56,3.2-1.86,6.17-4.36,8.25l-2.82,2.1,2.5.88,1.57.35c1.96.86,3.71,1.93,5.41,3.25,2.43,1.88,4.68,3.79,6.89,5.95,2.81,2.75,5.09,5.84,6.56,9.57ZM35.1,19.12l3.52-3.05c1.36-1.18,2.15-2.57,2.78-4.22l1.46-3.81-2.77,2.35c-1.2,1.02-2.61,1.82-3.28,3.3l-1.61,3.57-1.55,3.05c.71-.2.94-.75,1.44-1.18ZM43.18,68.44l2.12-3.99c.89-1.68,1.44-3.58,2-5.39l1.14-3.72c.92-2.99.67-5,1.29-7.09.2-.68.03-1.61.18-2.31.3-1.47.45-2.81.37-4.34-.18-3.51-1.08-6.85-2.52-10.08-1.28-2.89-3.83-4.85-6.93-5.43-1.83-.87-3.76-1.35-5.78-1.35l-3.56.62c-3.57.62-7.89,3.54-10.9,5.89-3.75,2.93-7.04,6.34-9.35,10.51-.55.99-.75,2.13-1.41,3.03s-1.12,1.8-1.56,2.8l-1.44,3.29c-.32.74-.34,1.86-.74,2.52-.73,1.2-.74,2.36-1.19,3.61-1.72,4.82-2.27,9.88-.83,14.88.79,2.74,1.79,5.33,3.2,7.82,2.1,3.7,7.55,6.3,11.74,6.05,6.56-.4,13.38-4.81,18-9.38,1.61-1.59,2.9-3.33,4.29-5.09.71-.9,1.33-1.85,1.87-2.86ZM33.39,84.35c1.21-.13,2.26-.35,3.46-.61l4.06-.86c1.83-.39,3.38-1.4,5-2.42,3.91-2.46,7.13-5.65,10.11-9.15.66-.77,1.21-1.55,1.59-2.45l1.33-3.2c.38-.92.42-2.06.66-3.04l.47-1.93.53-6.29c.15-1.77-.07-3.52-.38-5.29-1.18-6.85-4.67-12.99-9.7-17.69l1.05,3.02c.9,3.27,1.42,6.54,1.77,9.91.23,2.25.06,4.39.03,6.63-.02,1.09-.21,1.96-.48,3l-.83,3.27-1.12,3.46c-.76,2.36-3.24,6.2-4.98,8.28l-2.48,3.76c-2.79,3.6-5.98,6.78-9.67,9.49l-3.79,2.47,3.39-.35Z"/>
    <path class="cls-1" d="M33.02,73.5c-5.21,3.72-8.55,6.59-15.41,5.51-1.82-.29-3.72-.64-4.99-2.17-1.42-1.7-2.51-3.75-3.3-5.84-.52-1.37-.45-2.84-.65-4.26-.14-.96-.17-1.79.08-2.72.91-3.36.19-4.73.4-6.2.31-2.11.88-4.21,1.81-6.13l1.49-3.05c1.56-3.19,3.34-6.2,5.37-9.12,1.52-2.18,3.32-3.85,5.54-5.28,1.8-1.16,3.49-2.38,5.53-3.07,1.33-.44,2.86-.86,4.23-.64l3.67.59c1.45.23,2.98.66,4.16,1.66,2.21,1.87,3.74,4.85,3.76,7.75l.02,3.12-.07,3.29c-.02,1.1-.11,2.16-.37,3.23l-.68,2.73c.32,1.44.19,2.8-.16,4.23-.61,2.52-.97,5.12-2.13,7.48-1.83,3.73-4.92,6.47-8.31,8.89ZM25.89,45.68c.53-.29.76-1.22.68-1.76-.31-2.1-1.51-5.09-3.03-4.85-.73.12-1.22.72-1.62,1.34.1.71.15,1.56.45,2.16l1.03,2.07c.42.85,1.42,1.62,2.5,1.04ZM21.3,47.77c-1.64.04-2.44-2.08-3.77-1.65-.87.28-1.78,1.56-1.44,2.52.62,1.77,2.45,3.03,4.27,3.22.84.08,1.75-.92,1.9-1.63.19-.96-.33-1.88-.95-2.45ZM31.19,43.36c.7-.36.99-1.16,1.2-1.73.83-2.25.21-4.6-1.04-4.75-.88-.11-2.44,2.02-2.43,2.85l.04,2.3c.01.87,1.31,1.8,2.23,1.33ZM19.43,55.58c-.25-.56-.61-1.31-1.15-1.48-1.45-.46-3.11,0-4.21.97-.73.65-.84,1.73-.44,2.4.5.85,1.33,1.13,2.29.95l2.57-.49c1.03-.36,1.37-1.37.94-2.35ZM37.89,44.89c.49-.39.9-1.04.93-1.53.04-.64-.25-1.24-.77-1.73-1.14-1.08-4.96,1.7-5.3,3.94.24,1.41,2.38,1.5,3.29.78l1.84-1.46ZM18.65,60.36c-.24-.09-.82.03-1.06.16l-2.26,1.26c-.94.52-1.5,1.87-1.55,2.85-.06,1.05.57,1.7,1.49,1.94.58.15,1.26.13,1.74-.29.87-.75,1.62-1.54,2.28-2.42.96-1.28.23-3.17-.64-3.48ZM38.87,50.37c-.35-.83-.95-1.02-1.63-.83l-2.77.78c-.72.2-1.39.99-1.69,1.65s-.03,1.36.61,1.65c.68.32,1.49.4,2.22.18l2.5-.76c1.01-.31,1.13-1.78.76-2.67ZM35.92,62.74c.81-.88.26-2.81-.63-4.05-.42-.59-1.1-.73-1.71-.96-.54-.21-1.07-.55-1.57-.42-.97.24-1.8,1.32-1.8,1.99,0,.27.5.73.64.97.32.54.67,1.2,1.16,1.6,1.32,1.07,2.97,1.9,3.9.88ZM21.71,71.6c.95-1.22,1.68-2.45,2.16-3.85.27-.8-.42-2.37-1.13-2.67-1.06-.44-1.76.67-2.25,1.3l-1.22,1.58c-.76.99-1.07,2.43-.21,3.43.58.68,2,1.04,2.66.2ZM29.76,70.54c.7-.55,1.35-1.62,1.27-2.42-.2-2.18-2.39-5.38-3.78-4.37s-1.77,2.71-1.13,4.25c.29.69.54,1.45,1.01,2.03.58.71,1.76,1.18,2.63.5Z"/>
  </g>
</svg>