<?xml version="1.0" encoding="UTF-8"?>
<svg id="Camada_1" data-name="Camada 1" xmlns="http://www.w3.org/2000/svg" viewBox="0 0 137.89 194.4">
  <defs>
    <style>
      .cls-1 {
        fill: #201a18;
      }
    </style>
  </defs>
  <path class="cls-1" d="M119.3,72.12c-4.76-4.66-9.63-8.78-14.87-12.84-3.67-2.85-7.44-5.15-11.68-7.01l-3.39-.75-5.39-1.9,6.08-4.53c5.4-4.5,8.2-10.91,9.41-17.81l1.3-7.43,1.33-10.2,1.19-6.23c.2-1.03-.99-2.75-1.9-3.41-.79.37-1.85,1.21-2.23,1.9-1.63,3.02-4.14,4.84-7.29,6.14l-10.31,4.25c-6.85,3.61-14.17,11.95-14.18,19.78l-.02,10.47c0,1.5-.06,2.85-.46,4.35l-.54-3.53c-.88-5.78-.88-12.51-6.46-14.69-.6-.23-1.27-.34-1.97-.34-3.61,0-8.13,2.89-8.57,6.69.3.39,1.08,1.12,1.5,1.3,5.98,2.49,11.69,8.04,11.75,14.59-15.75,6.82-28.17,17.07-38.5,30.57-1.84,2.4-2.96,4.76-4.47,7.31l-6.28,10.57c-3.63,6.12-6.57,12.21-8.72,19-4.48,14.12-7.46,27.13-.61,40.98,3.36,6.8,7.05,13.12,11.79,19.07,1.28,1.61,3.1,2.92,4.78,4.07,7.73,5.32,16.16,8.54,25.37,10.23,5.45,1,10.9,1.71,16.38,1.71,3.5,0,7.01-.29,10.53-.98,7.86-1.54,15.35-4.29,22.44-8.07l8.22-5.59,6.2-5.57c2.75-2.47,6.02-4.43,8.22-7.45,3.28-4.51,6.73-8.66,9.6-13.48,5.66-9.47,8.38-20.13,9.82-30.99,1.34-10.1-.1-19.83-3.93-29.49-3.19-8.05-8.11-14.72-14.17-20.66ZM76,37.24l3.48-7.7c1.43-3.18,4.48-4.91,7.07-7.11l5.97-5.07-3.16,8.23c-1.37,3.57-3.06,6.57-6,9.11l-7.61,6.58c-1.07.93-1.57,2.12-3.11,2.55l3.35-6.59ZM41.04,185.13c-.41.02-.82.04-1.24.04-8.85,0-19.78-5.47-24.1-13.09-3.04-5.36-5.2-10.97-6.9-16.87-3.11-10.79-1.92-21.72,1.79-32.12.96-2.7.99-5.19,2.56-7.79.87-1.43.91-3.85,1.61-5.45l3.11-7.1c.94-2.16,1.98-4.12,3.37-6.03,1.42-1.95,1.86-4.4,3.05-6.54,4.99-9.01,12.08-16.36,20.18-22.69,6.5-5.08,15.83-11.38,23.53-12.72l7.68-1.34h.04c4.33,0,8.49,1.05,12.42,2.91,6.68,1.23,12.18,5.48,14.95,11.71,3.1,6.97,5.04,14.19,5.43,21.76.17,3.29-.15,6.18-.8,9.36-.31,1.5.05,3.52-.38,4.98-1.34,4.52-.79,8.85-2.78,15.31l-2.47,8.02c-1.2,3.91-2.38,8.01-4.31,11.63l-4.59,8.62c-1.16,2.17-2.5,4.22-4.04,6.17-3,3.81-5.78,7.55-9.26,10.99-9.98,9.88-24.7,19.39-38.86,20.25ZM130.76,117.4l-1.14,13.57-1.01,4.17c-.51,2.11-.6,4.57-1.42,6.56l-2.87,6.91c-.81,1.96-2.01,3.63-3.43,5.3-6.44,7.55-13.39,14.45-21.83,19.76-3.5,2.2-6.84,4.39-10.78,5.22l-8.75,1.86c-2.58.55-4.86,1.04-7.46,1.31l-7.31.76,8.19-5.32c7.96-5.83,14.85-12.71,20.87-20.48l5.34-8.13c3.75-4.5,9.1-12.77,10.74-17.88l2.41-7.47,1.8-7.06c.57-2.23.99-4.11,1.03-6.47.08-4.82.44-9.45-.06-14.31-.74-7.27-1.87-14.33-3.81-21.39l-2.27-6.53c10.88,10.15,18.39,23.41,20.95,38.19.66,3.83,1.14,7.61.82,11.42Z"/>
  <path class="cls-1" d="M94.15,114.19l1.46-5.89c.57-2.3.75-4.59.8-6.97l.15-7.1-.04-6.73c-.04-6.25-3.36-12.69-8.12-16.72-2.55-2.16-5.85-3.08-8.98-3.58l-7.93-1.27c-.56-.09-1.14-.13-1.72-.13-2.48,0-5.09.74-7.41,1.51-4.42,1.48-8.06,4.12-11.94,6.62-4.81,3.1-8.69,6.69-11.97,11.4-4.38,6.3-8.21,12.79-11.58,19.68l-3.22,6.59c-2.02,4.14-3.26,8.67-3.92,13.23-.46,3.17,1.11,6.14-.86,13.39-.55,2.02-.47,3.81-.18,5.88.43,3.05.28,6.23,1.41,9.19,1.72,4.5,4.07,8.92,7.13,12.6,2.75,3.3,6.85,4.07,10.78,4.68,2.14.34,4.12.49,5.98.49,11,0,17.67-5.52,27.29-12.39,7.31-5.22,14-11.12,17.94-19.18,2.5-5.1,3.28-10.71,4.6-16.16.75-3.08,1.04-6.03.34-9.13ZM80.63,89.35c.6,0,1.11.16,1.49.52,1.12,1.05,1.74,2.35,1.66,3.72-.06,1.06-.95,2.46-2,3.29l-3.98,3.16c-.78.62-1.97.96-3.17.96-1.82,0-3.63-.8-3.94-2.64.61-4.1,6.62-9.02,9.94-9.02ZM67.53,79.59s.09,0,.14,0c2.7.32,4.02,5.4,2.24,10.25-.46,1.25-1.07,2.97-2.59,3.74-.37.19-.77.27-1.17.27-1.77,0-3.62-1.62-3.65-3.15l-.08-4.96c-.03-1.75,3.17-6.15,5.1-6.15ZM37.84,99.54c.26-.08.52-.12.76-.12,2.41,0,4.13,3.69,7.27,3.69.03,0,.06,0,.1,0,1.35,1.23,2.47,3.22,2.05,5.29-.3,1.49-2.12,3.54-3.88,3.54-.07,0-.15,0-.22-.01-3.93-.39-7.88-3.12-9.21-6.94-.72-2.08,1.25-4.83,3.12-5.44ZM30.37,118.85c1.73-1.55,4.12-2.49,6.5-2.49.87,0,1.74.13,2.58.39,1.16.37,1.95,2,2.49,3.2.94,2.12.2,4.28-2.02,5.07l-5.55,1.06c-.4.08-.78.11-1.15.11-1.57,0-2.91-.68-3.79-2.17-.86-1.45-.62-3.77.95-5.18ZM36.73,143.03c-.68.59-1.53.81-2.39.81-.47,0-.94-.07-1.38-.18-1.99-.5-3.34-1.9-3.22-4.18.12-2.11,1.33-5.02,3.35-6.14l4.88-2.71c.39-.22,1.2-.41,1.8-.41.19,0,.36.02.48.06,1.9.67,3.46,4.76,1.39,7.52-1.43,1.9-3.04,3.62-4.92,5.23ZM51.51,146.23c-1.03,3.02-2.6,5.68-4.66,8.31-.58.75-1.45,1.05-2.35,1.05-1.29,0-2.65-.63-3.38-1.49-1.85-2.17-1.19-5.27.46-7.41l2.63-3.42c.88-1.14,2.1-3.03,3.82-3.03.32,0,.67.07,1.03.22,1.53.64,3.04,4.04,2.45,5.77ZM50.49,96.36l-2.22-4.46c-.64-1.29-.76-3.14-.97-4.66.86-1.34,1.92-2.64,3.5-2.89.13-.02.25-.03.37-.03,3.09,0,5.51,6.13,6.16,10.49.18,1.17-.31,3.17-1.46,3.79-.56.31-1.12.44-1.65.44-1.64,0-3.05-1.29-3.74-2.68ZM64.24,152.26c-.64.5-1.36.71-2.07.71-1.39,0-2.77-.79-3.6-1.8-1.02-1.24-1.56-2.89-2.17-4.38-1.38-3.33-.59-6.95,2.45-9.18.39-.29.81-.42,1.25-.42,2.9,0,6.52,5.76,6.9,9.84.16,1.74-1.23,4.05-2.75,5.22ZM77.52,135.42c-.65.71-1.45,1-2.34,1-1.88,0-4.14-1.33-6.08-2.9-1.07-.86-1.81-2.31-2.51-3.46-.31-.51-1.38-1.5-1.38-2.09-.01-1.45,1.78-3.78,3.88-4.29.16-.04.32-.06.48-.06.93,0,1.91.58,2.9.97,1.31.51,2.77.82,3.68,2.08,1.92,2.67,3.1,6.83,1.37,8.74ZM82.27,114.48l-5.39,1.64c-.6.18-1.21.27-1.83.27-1.02,0-2.04-.23-2.96-.66-1.37-.64-1.97-2.13-1.31-3.57.64-1.41,2.09-3.12,3.64-3.56l5.98-1.68c.34-.09.66-.14.98-.14,1.05,0,1.95.56,2.53,1.94.79,1.91.54,5.1-1.64,5.76Z"/>
</svg>