<?xml version="1.0" encoding="UTF-8"?>
<svg id="Camada_1" data-name="Camada 1" xmlns="http://www.w3.org/2000/svg" viewBox="0 0 500.54 119.08">
  <defs>
    <style>
      .cls-1 {
        fill: #201a18;
      }
    </style>
  </defs>
  <path class="cls-1" d="M51.48,69.07c0,16.14,8.86,12.17,8.86,19.32,0,3.18-1.85,4.23-7.81,4.23h-24.21c-5.69,0-7.81-1.06-7.81-4.23,0-7.14,9.13-3.18,9.13-19.32V15.74c0-3.57-1.72-5.42-5.43-5.42-7.94,0-10.72,4.9-15.61,14.42-1.46,3.04-2.91,4.76-5.03,4.76C.68,29.51-.12,27.12.01,23.02.28,15.22,1.07,9.79,2.13,5.95,3.32,1.72,5.57,0,13.38,0h54.25c7.94,0,10.19,1.72,11.25,5.95,1.06,3.84,1.85,9.26,2.12,17.07.13,3.97-.66,6.48-3.57,6.48-2.12,0-3.44-1.72-5.03-4.76-4.76-9.53-7.67-14.55-15.61-14.55-3.44,0-5.29,1.98-5.29,5.56v53.32Z"/>
  <path class="cls-1" d="M131.01,74.62c-2.51,7.81-13.89,19.32-32.02,19.32s-31.76-12.83-31.76-31.23c0-20.51,16.67-34.93,34.53-34.93,16.67,0,25.54,10.19,27.12,21.43.26,1.98-.79,3.97-3.04,5.03-13.1,6.35-22.23,10.19-35.2,15.22,2.78,5.16,8.2,9.79,17.47,9.79,7.67,0,13.76-3.97,18.52-8.47,2.91-2.78,5.69-.26,4.37,3.84ZM86.42,52.4c0,2.78.53,6.35,1.19,8.47,6.09-2.12,12.31-4.37,18.13-7.14,2.25-1.06,4.5-1.85,3.31-5.82-2.12-7.41-7.94-11.78-13.89-10.19-5.56,1.32-8.73,6.88-8.73,14.69Z"/>
  <path class="cls-1" d="M247.58,77.01c1.72,8.07,6.88,6.88,6.88,11.91,0,3.04-2.25,3.7-6.09,3.7h-20.64c-4.1,0-6.48-.93-6.48-3.84,0-4.63,7.01-4.5,5.16-13.1l-4.23-20.38c-1.46-7.28-2.91-14.42-10.59-14.29-5.69,0-10.98,5.16-10.98,14.95v17.86c0,12.04,6.48,8.73,6.48,15.08,0,3.04-2.25,3.7-6.09,3.7h-21.3c-4.1,0-6.48-.93-6.48-3.84,0-6.22,6.62-2.91,6.62-14.95v-16.8c0-8.73-1.19-16.54-9.66-16.41-6.09,0-12.04,5.95-12.04,15.35v17.86c0,12.04,6.48,8.73,6.48,15.08,0,3.04-2.25,3.7-6.09,3.7h-21.43c-3.97,0-6.35-.93-6.35-3.84,0-6.22,6.62-2.91,6.62-14.95v-24.48c0-3.31-1.98-5.29-4.1-7.14-1.19-.93-2.51-1.98-2.51-4.1,0-2.38,1.19-3.44,4.37-4.9,5.16-2.38,15.22-5.29,17.46-5.43,2.38,0,3.31,1.59,3.31,4.5v7.28c5.29-7.81,13.1-11.78,21.43-11.78,10.59,0,17.07,4.37,20.51,11.64,4.9-7.54,12.44-11.64,20.91-11.64,16.54,0,20.64,10.98,24.08,26.99l4.76,22.23Z"/>
  <path class="cls-1" d="M323.79,58.22c0,25.14-16.94,35.72-29.51,35.72-6.48,0-12.17-2.25-16.54-4.76v11.11c0,12.04,6.62,8.73,6.62,15.08,0,3.04-2.38,3.71-6.09,3.71h-21.43c-4.1,0-6.48-.93-6.48-3.71,0-6.35,6.62-3.04,6.62-15.08v-51.07c0-3.31-1.85-5.29-4.1-7.01-1.06-1.06-2.51-2.12-2.51-4.23,0-2.38,1.19-3.31,4.37-4.76,5.29-2.51,15.35-5.43,17.47-5.43,2.38,0,3.31,1.59,3.31,4.5v6.22c4.23-5.82,10.98-10.72,21.43-10.72,14.16,0,26.86,10.85,26.86,30.43ZM303.81,66.82c0-14.16-5.16-26.86-14.69-26.86-6.48,0-11.51,6.75-11.38,16.27l.13,8.34c.26,12.57,7.14,19.98,14.69,19.98,8.34,0,11.25-9.92,11.25-17.73Z"/>
  <path class="cls-1" d="M388.63,74.62c-2.51,7.81-13.89,19.32-32.02,19.32s-31.76-12.83-31.76-31.23c0-20.51,16.67-34.93,34.53-34.93,16.67,0,25.54,10.19,27.12,21.43.26,1.98-.79,3.97-3.04,5.03-13.1,6.35-22.23,10.19-35.2,15.22,2.78,5.16,8.2,9.79,17.47,9.79,7.67,0,13.76-3.97,18.52-8.47,2.91-2.78,5.69-.26,4.37,3.84ZM344.04,52.4c0,2.78.53,6.35,1.19,8.47,6.09-2.12,12.31-4.37,18.13-7.14,2.25-1.06,4.5-1.85,3.31-5.82-2.12-7.41-7.94-11.78-13.89-10.19-5.56,1.32-8.73,6.88-8.73,14.69Z"/>
  <path class="cls-1" d="M470,15.48c6.46.95,10.94,2.54,16.85,4.64,6.95,2.47,10.45,3.76,12.04,6.19,5.05,7.75-2.66,23.08-7.22,22.81-3.03-.17-2.21-7.07-9.11-14.73-1.37-1.52-7.22-7.71-16.68-9.8-9.34-2.07-16.9,1.02-22.24,3.2-1.87.76-11.52,4.84-19.93,14.95-4.05,4.87-6.49,9.56-7.94,12.83v18.26c0,12.04,6.48,8.73,6.48,15.08,0,3.04-2.25,3.7-6.09,3.7h-21.44c-3.97,0-6.35-.93-6.35-3.84,0-6.22,6.62-2.91,6.62-14.95v-24.48c0-3.31-1.99-5.29-4.1-7.14-1.19-.93-2.51-1.98-2.51-4.1,0-2.38,1.19-3.44,4.37-4.9,5.16-2.38,15.22-5.29,17.47-5.43,2.38,0,3.31,1.59,3.31,4.5v6.48c2.44-3.04,6.02-7,10.92-10.98,4.16-3.37,10.17-8.24,19.24-11.11,10.94-3.46,20.29-2.09,26.33-1.2Z"/>
  <path class="cls-1" d="M500.35,84.02c0,5.03-8.34,9.66-14.82,9.66-5.69,0-9.92-2.78-12.31-9.53-6.75,6.88-15.61,9.53-23.55,9.53-14.03,0-23.68-8.07-23.68-19.05,0-12.57,10.98-21.96,31.09-21.96,2.38,0,4.5.26,8.73.66-2.25-7.15-5.42-13.23-14.42-13.23-5.16,0-10.85,2.51-15.22,4.9-2.51,1.59-5.69-.4-3.57-4.1,3.44-5.95,13.76-13.1,26.73-13.1,18.13,0,22.76,12.83,25.93,23.55l6.75,23.02c1.32,4.63,2.78,7.28,5.95,7.14,1.46-.13,2.38.93,2.38,2.51ZM470.58,73.7c-.27-1.85-1.46-5.16-2.78-9.13-1.06-3.04-4.37-4.37-8.73-4.37-8.34,0-13.5,4.37-13.5,10.85,0,7.01,5.29,12.17,13.23,12.17,6.62,0,12.83-4.37,11.78-9.53Z"/>
</svg>